<svg xmlns="http://www.w3.org/2000/svg">

    <symbol viewBox="0 0 97 24" fill="none" id="icon__logo">
        <path
            d="M35.2375 0L15.2011 3.92018L12.4262 7.27874V10.8023L11.0538 12.6823L10.9542 5.66248L7.57849 6.31584L7.68738 13.033L0 22.3773L23.5859 21.8876L35.2375 0Z"
            fill="#A07855" />
        <path d="M33.8828 2.54657L35.2385 0L45.9451 19.8283H42.738L33.8828 2.54657Z" fill="#D4B996" />
        <path d="M46.0973 16.9728L42.6974 10.1446L50.4685 8.57324L46.0973 16.9728Z" fill="#D4B996" />
        <path d="M50.4682 8.57324L49.1895 11.0305L56.79 22.3887H59.4177L50.4682 8.57324Z" fill="#D4B996" />
        <path d="M50.4682 8.57324L49.1895 11.0305L56.79 22.3887H59.4177L50.4682 8.57324Z" fill="#A07855" />
        <path fill-rule="evenodd" clip-rule="evenodd"
            d="M31.0566 12.7725L33.5781 12.8872V15.5919H31.0566V12.7725ZM31.0566 16.4482V19.2665H33.5781V16.4482H31.0566ZM34.412 16.4482V19.2665H36.932V16.4482H34.412ZM36.932 15.5919V13.0398L34.412 12.9251V15.5919H36.932Z"
            fill="#D4B996" />
        <path d="M96.046 23.886L56.8915 22.3704L55.7969 20.7705L96.046 23.886Z" fill="#D9D9D9" />
        <path d="M96.046 23.886L56.8915 22.3704L55.7969 20.7705L96.046 23.886Z" fill="#A07855" />
    </symbol>

    <symbol viewBox="0 0 15 14" fill="none" id="icon__download">
        <g clip-path="url(#clip0_410_49)">
            <path
                d="M11.3889 14H3.6111C2.78015 14 1.99889 13.6764 1.41124 13.0887C0.823616 12.5012 0.5 11.7199 0.5 10.8889V10.1111C0.5 9.68148 0.848205 9.33325 1.27778 9.33325C1.70736 9.33325 2.05556 9.68148 2.05556 10.1111V10.8889C2.05556 11.3044 2.21739 11.695 2.51114 11.9888C2.80498 12.2826 3.1956 12.4444 3.6111 12.4444H11.3889C11.8043 12.4444 12.195 12.2826 12.4888 11.9888C12.7826 11.6949 12.9444 11.3043 12.9444 10.8889V10.1111C12.9444 9.68148 13.2926 9.33325 13.7222 9.33325C14.1517 9.33325 14.5 9.68148 14.5 10.1111V10.8889C14.5 11.7198 14.1764 12.5011 13.5887 13.0887C13.0011 13.6764 12.2198 14 11.3889 14ZM7.49999 10.8888C7.39239 10.8888 7.28997 10.867 7.19677 10.8275C7.10983 10.7908 7.02813 10.7374 6.95665 10.6676C6.95662 10.6676 6.95662 10.6676 6.9566 10.6676C6.95608 10.6671 6.95556 10.6666 6.95505 10.6661C6.95491 10.6659 6.95475 10.6658 6.95461 10.6656C6.95418 10.6652 6.9538 10.6648 6.95339 10.6644C6.95312 10.6642 6.95287 10.6639 6.9526 10.6636C6.95233 10.6634 6.95198 10.663 6.95173 10.6628C6.95119 10.6622 6.95059 10.6617 6.95005 10.6611L3.83892 7.54995C3.53519 7.24622 3.53519 6.75375 3.83892 6.44999C4.14265 6.14627 4.63515 6.14624 4.93888 6.44999L6.72223 8.23335V0.777782C6.7222 0.348205 7.07041 0 7.49999 0C7.92956 0 8.2778 0.348205 8.2778 0.777782V8.23332L10.0611 6.44999C10.3648 6.14627 10.8574 6.14627 11.1611 6.44999C11.4648 6.75372 11.4648 7.24622 11.1611 7.54995L8.04995 10.6611C8.04941 10.6616 8.04881 10.6622 8.04827 10.6627C8.04797 10.663 8.04764 10.6634 8.0474 10.6636C8.04713 10.6639 8.04688 10.6641 8.04661 10.6644C8.04623 10.6648 8.04579 10.6652 8.04541 10.6656C8.04528 10.6657 8.04509 10.6659 8.04495 10.666C8.04446 10.6665 8.04395 10.667 8.04343 10.6675C8.0434 10.6675 8.0434 10.6675 8.04338 10.6676C8.03482 10.6759 8.02615 10.684 8.01729 10.6919C7.95217 10.75 7.87963 10.7953 7.80293 10.8276C7.80265 10.8277 7.80244 10.8278 7.80217 10.8279C7.80187 10.828 7.80162 10.8282 7.80132 10.8283C7.70862 10.8673 7.60684 10.8888 7.49999 10.8888Z"
                fill="white" />
        </g>
        <defs>
            <clipPath id="clip0_410_49">
                <rect width="14" height="14" fill="white" transform="translate(0.5)" />
            </clipPath>
        </defs>
    </symbol>


    <symbol xmlns="http://www.w3.org/2000/svg" width="14" height="14" fill="none" id="icon__buy">
        <path fill="url(#a)"
            d="m13.112 4.044-1.23 4.918a.874.874 0 0 1-.849.663H3.452a.874.874 0 0 1-.869-.774L1.697 1.75h-.603a.656.656 0 1 1 0-1.313h1.175c.328 0 .606.243.65.567L3.262 3.5h9.425c.285 0 .494.268.425.544Z" />
        <path fill="url(#b)"
            d="M3.063 11.813c0 .723.588 1.312 1.312 1.312.724 0 1.313-.589 1.313-1.313 0-.723-.59-1.312-1.313-1.312-.724 0-1.313.589-1.313 1.313Z" />
        <path fill="url(#c)"
            d="M10.938 11.813c0-.724-.59-1.313-1.313-1.313-.724 0-1.313.589-1.313 1.313 0 .723.59 1.312 1.313 1.312.724 0 1.313-.589 1.313-1.313Z" />
        <defs>
            <linearGradient id="a" x1="2.207" x2="11.841" y1="9.625" y2="9.034" gradientUnits="userSpaceOnUse">
                <stop stop-color="#19B37D" />
                <stop offset="1" stop-color="#188A7B" />
            </linearGradient>
            <linearGradient id="b" x1="3.429" x2="5.425" y1="13.125" y2="13.036" gradientUnits="userSpaceOnUse">
                <stop stop-color="#19B37D" />
                <stop offset="1" stop-color="#188A7B" />
            </linearGradient>
            <linearGradient id="c" x1="8.679" x2="10.675" y1="13.125" y2="13.036" gradientUnits="userSpaceOnUse">
                <stop stop-color="#19B37D" />
                <stop offset="1" stop-color="#188A7B" />
            </linearGradient>
        </defs>
    </symbol>

    <symbol xmlns="http://www.w3.org/2000/svg" width="17" height="20" viewBox="0 0 17 20" fill="none"
        id="icon__favorite">
        <path
            d="M3.70457 12.8846L8.49562 16.4779L13.2586 12.8901C13.5816 12.47 14.2344 11.6161 14.2615 11.5619C14.2954 11.4942 14.9731 10.6539 15.0205 10.5116C15.0679 10.3693 15.6304 9.41377 15.6304 9.346C15.6304 9.27824 15.6439 8.15333 15.6304 8.09234C15.6196 8.04355 14.9934 6.97421 14.6817 6.44564L13.0485 5.51725L10.7672 5.32617L9.28036 6.89565L8.24781 7.763C8.05506 7.45323 7.63653 6.78827 7.50437 6.60654C7.3722 6.42481 6.26531 5.84267 5.72838 5.57432L2.89918 5.96675L1.41231 7.63917L1.66012 10.3859L3.70457 12.8846Z"
            fill="#6B707E" />
        <path
            d="M14.9056 6.17881C14.1658 5.41863 13.1394 5 12.0156 5C10.4351 5 9.43448 5.85478 8.87339 6.57187C8.72781 6.75795 8.60397 6.94453 8.5 7.1201C8.39603 6.94453 8.27222 6.75795 8.12661 6.57187C7.56552 5.85478 6.56488 5 4.98438 5C3.86061 5 2.83425 5.41866 2.09438 6.17883C1.38868 6.90399 1 7.87518 1 8.91349C1 10.0437 1.48729 11.0949 2.53355 12.2217C3.46861 13.2288 4.81384 14.2668 6.37158 15.4688C6.95204 15.9167 7.5523 16.38 8.19136 16.8863L8.21055 16.9015C8.2934 16.9672 8.3967 17 8.5 17C8.6033 17 8.7066 16.9672 8.78945 16.9015L8.80864 16.8863C9.4477 16.38 10.048 15.9168 10.6285 15.4688C12.1862 14.2668 13.5314 13.2288 14.4665 12.2217C15.5127 11.0949 16 10.0437 16 8.91349C16 7.87518 15.6113 6.90399 14.9056 6.17881ZM10.0584 14.8631C9.558 15.2492 9.04302 15.6465 8.5 16.074C7.95701 15.6466 7.442 15.2492 6.94152 14.863C3.89292 12.5106 1.87891 10.9564 1.87891 8.91349C1.87891 8.06906 2.1896 7.28474 2.75377 6.70505C3.32441 6.11877 4.11657 5.79588 4.98438 5.79588C6.18933 5.79588 6.96824 6.46809 7.40945 7.03199C7.80522 7.53775 8.01174 8.04759 8.08217 8.2433C8.14108 8.40712 8.30975 8.51799 8.5 8.51799C8.69025 8.51799 8.85892 8.40712 8.91783 8.2433C8.98826 8.04759 9.19478 7.53775 9.59055 7.03197C10.0318 6.46809 10.8107 5.79588 12.0156 5.79588C12.8834 5.79588 13.6756 6.11877 14.2462 6.70505C14.8104 7.28474 15.1211 8.06906 15.1211 8.91349C15.1211 10.9564 13.1071 12.5106 10.0584 14.8631Z"
            fill="#6B707E" />
    </symbol>

    <symbol xmlns="http://www.w3.org/2000/svg" width="9" height="10" viewBox="0 0 9 10" fill="none"
        id="icon__separator">
        <g opacity="0.6" clip-path="url(#clip0_0_865)">
            <path
                d="M6.82839 4.75303L2.66562 0.601775C2.52924 0.465844 2.30842 0.466072 2.17226 0.602478C2.03621 0.738866 2.03656 0.959805 2.17296 1.09584L6.08795 5.00002L2.17282 8.90417C2.03644 9.04023 2.03608 9.26102 2.17212 9.39743C2.24038 9.46581 2.3298 9.5 2.41922 9.5C2.50841 9.5 2.59747 9.46604 2.66561 9.39813L6.82839 5.24699C6.89408 5.18163 6.93094 5.09269 6.93094 5.00002C6.93094 4.90734 6.89397 4.8185 6.82839 4.75303Z"
                fill="#343A40" />
        </g>
        <defs>
            <clipPath id="clip0_0_865">
                <rect width="9" height="9" fill="white" transform="translate(0 0.5)" />
            </clipPath>
        </defs>
    </symbol>

    <symbol width="12" height="13" viewBox="0 0 12 13" fill="none" id="icon__windows">
        <g clip-path="url(#clip0_0_212)">
            <path d="M0.000671387 2.49951V6.24951H5.25067V1.84326L0.000671387 2.49951Z" fill="#343A40" />
            <path d="M6.00067 1.74951V6.24951H12.0007V0.999512L6.00067 1.74951Z" fill="#343A40" />
            <path d="M6.00067 6.99951V11.4995L12.0007 12.2495V6.99951H6.00067Z" fill="#343A40" />
            <path d="M0.000671387 6.99951V10.7495L5.25067 11.4058V6.99951H0.000671387Z" fill="#343A40" />
        </g>
        <defs>
            <clipPath id="clip0_0_212">
                <rect width="12" height="12" fill="white" transform="translate(0.000671387 0.624512)" />
            </clipPath>
        </defs>
    </symbol>

    <symbol viewBox="0 0 60 60" fill="none" id="icon__play">
        <g clip-path="url(#clip0_0_261)">
            <path
                d="M30 0C13.457 0 0 13.4583 0 30C0 46.5417 13.457 60 30 60C46.543 60 60 46.5417 60 30C60 13.4583 46.543 0 30 0ZM41.9263 31.0511L24.4263 42.3011C24.2213 42.4341 23.9844 42.5 23.75 42.5C23.545 42.5 23.3374 42.4487 23.1519 42.3475C22.749 42.1277 22.5 41.7077 22.5 41.25V18.75C22.5 18.2923 22.749 17.8723 23.1519 17.6525C23.5474 17.4353 24.043 17.4486 24.4263 17.6989L41.9263 28.9489C42.2828 29.1784 42.5 29.5752 42.5 30C42.5 30.4248 42.2828 30.8215 41.9263 31.0511Z"
                fill="white" fill-opacity="0.67" />
        </g>
        <defs>
            <clipPath id="clip0_0_261">
                <rect width="60" height="60" fill="white" />
            </clipPath>
        </defs>
    </symbol>

    <symbol viewBox="0 0 16 17" fill="none" id="icon__marker">
        <path
            d="M12.5 7.63397C13.1667 8.01887 13.1667 8.98113 12.5 9.36603L5 13.6962C4.33333 14.0811 3.5 13.5999 3.5 12.8301V4.16987C3.5 3.40007 4.33333 2.91895 5 3.30385L12.5 7.63397Z"
            fill="#343A40" />
        <path
            d="M13.25 10.6651C14.9167 9.70281 14.9167 7.29719 13.25 6.33494L5.75 2.00481C4.08333 1.04256 2 2.24537 2 4.16987V12.8301C2 14.7546 4.08333 15.9574 5.75 14.9952L13.25 10.6651Z"
            stroke="#343A40" stroke-opacity="0.15" stroke-width="3" />
    </symbol>
</svg>