<svg width="14" height="14" viewBox="0 0 14 14" fill="none" xmlns="http://www.w3.org/2000/svg">
<path d="M13.1119 4.68639L11.8825 9.60477C11.7849 9.99502 11.4358 10.2676 11.0333 10.2676H3.45187C3.00781 10.2676 2.63419 9.93508 2.583 9.49408L1.69706 2.39258H1.09375C0.731063 2.39258 0.4375 2.09902 0.4375 1.73633C0.4375 1.37364 0.731063 1.08008 1.09375 1.08008H2.26931C2.59744 1.08008 2.87481 1.32245 2.91944 1.64708L3.26156 4.14258H12.6875C12.9719 4.14258 13.181 4.41033 13.1119 4.68639Z" fill="white"/>
<path d="M3.0625 12.4551C3.0625 13.1787 3.65137 13.7676 4.375 13.7676C5.09862 13.7676 5.6875 13.1787 5.6875 12.4551C5.6875 11.7315 5.09862 11.1426 4.375 11.1426C3.65137 11.1426 3.0625 11.7315 3.0625 12.4551Z" fill="white"/>
<path d="M10.9375 12.4551C10.9375 11.7315 10.3486 11.1426 9.625 11.1426C8.90137 11.1426 8.3125 11.7315 8.3125 12.4551C8.3125 13.1787 8.90137 13.7676 9.625 13.7676C10.3486 13.7676 10.9375 13.1787 10.9375 12.4551Z" fill="white"/>
</svg>
